<?xml version="1.0" standalone="no"?>
<!DOCTYPE svg PUBLIC "-//W3C//DTD SVG 1.1//EN" "http://www.w3.org/Graphics/SVG/1.1/DTD/svg11.dtd" >
<svg xmlns="http://www.w3.org/2000/svg" xmlns:xlink="http://www.w3.org/1999/xlink" version="1.1">
<metadata></metadata>
<defs>
<font id="cyclicsansheavy" horiz-adv-x="1167" >
<font-face units-per-em="2048" ascent="1526" descent="-522" />
<missing-glyph horiz-adv-x="389" />
<glyph unicode="&#xfb01;" horiz-adv-x="1019" d="M836 1251l-187 -157q-58 88 -145 88q-51 0 -87 -39.5t-36 -95.5v-103h528v-944h-254v721h-274v-721h-254v721h-117v223h117v103q0 147 109 253q108 105 268 105q205 0 332 -154z" />
<glyph unicode="&#xfb02;" horiz-adv-x="1024" d="M535 944v-223h-154v-721h-254v721h-117v223h117v103q0 146 96 253q95 105 234 105q43 0 145 -10q112 -11 143 -11h168v-1384h-256v1163q-4 1 -25 4.5t-38 6.5t-41.5 5.5t-44.5 2.5q-61 0 -94 -36.5t-33 -98.5v-103h154z" />
<glyph horiz-adv-x="681" />
<glyph horiz-adv-x="681" />
<glyph horiz-adv-x="682" />
<glyph unicode="&#xd;" horiz-adv-x="512" />
<glyph unicode=" "  horiz-adv-x="389" />
<glyph unicode="&#x09;" horiz-adv-x="389" />
<glyph unicode="&#xa0;" horiz-adv-x="389" />
<glyph unicode="!" horiz-adv-x="626" d="M184 358v1026h256v-1026h-256zM207 27q-34 30 -41 75.5t9 85t53.5 67t84.5 24.5q65 0 108.5 -43t43.5 -105t-43.5 -104.5t-108.5 -42.5q-63 0 -106 43z" />
<glyph unicode="&#x22;" horiz-adv-x="860" d="M492 868v516h264v-516h-264zM102 1384h265v-516h-265v516z" />
<glyph unicode="#" horiz-adv-x="1273" d="M823 358l-147 -358h-268l147 358h-88l-148 -358h-268l148 358h-129v224h221l65 157h-161v224h254l151 354h268l-149 -354h86l149 354h271l-150 -354h131v-224h-225l-66 -157h166v-224h-258zM559 582h88l66 157h-88z" />
<glyph unicode="$" horiz-adv-x="1034" d="M684 272q69 66 66 170q-2 98 -63.5 157.5t-172.5 66.5q-130 8 -226 50t-151.5 122t-56.5 192q-2 134 81.5 228t229.5 120v90h234v-94q174 -38 311 -203l-186 -149q-123 141 -250 141q-75 0 -120 -36.5t-44 -96.5q0 -126 186 -141q225 -17 353 -134t129 -313 q1 -177 -101.5 -297t-277.5 -151l2 -144h-232l-2 148q-119 29 -219.5 111.5t-163.5 203.5l223 101q108 -205 275 -205q110 0 176 63z" />
<glyph unicode="%" horiz-adv-x="1392" d="M989 1384h299l-876 -1384h-299zM868 459q83 80 205 80q121 0 207 -80q84 -84 84 -201q0 -118 -84 -199q-85 -79 -207 -79q-123 0 -205 79q-84 81 -84 199q0 117 84 201zM117 1325q83 80 202 80q121 0 207 -80q84 -84 84 -201t-84 -198q-86 -80 -204 -80q-122 0 -205 80 q-86 80 -86 198t86 201zM1026 201q18 -21 47 -21q68 0 68 78q0 37 -18.5 58.5t-49.5 21.5q-28 5 -48.5 -21t-19.5 -58.5t21 -57.5zM252 1124q0 -36 19.5 -56.5t50.5 -20.5q43 -7 60 41q16 46 -6 87q-18 34 -54 29q-31 0 -50.5 -22t-19.5 -58z" />
<glyph unicode="&#x26;" horiz-adv-x="1349" d="M860 1253l-166 -151q-84 90 -166 90q-60 0 -96.5 -33.5t-34.5 -87.5q2 -55 39.5 -89t102.5 -34h125v-203h-123q-101 0 -172.5 -80.5t-71.5 -201.5t73.5 -194.5t207.5 -73.5q119 0 197.5 55t78.5 141q0 84 -72 84q-64 0 -108 -80l-158 99q45 82 115.5 132t154.5 50 q64 0 138 -39q72 -40 120 -43q92 -3 119 76l176 -99q-80 -188 -272 -188q0 -174 -143 -287q-143 -116 -375 -116q-244 0 -377 133q-131 131 -131 333q0 131 57.5 235t161.5 161q-48 39 -79 104.5t-31 132.5q0 125 104 226q100 100 274 100q195 0 332 -152z" />
<glyph unicode="'" horiz-adv-x="442" d="M102 1384h236v-516h-236v516z" />
<glyph unicode="(" horiz-adv-x="659" d="M143 -88q-71 201 -71 395v336q0 198 71.5 396.5t198.5 346.5l199 -135q-102 -119 -157.5 -281.5t-55.5 -326.5v-336q0 -164 55.5 -327t157.5 -283l-199 -135q-130 155 -199 350z" />
<glyph unicode=")" horiz-adv-x="659" d="M281 967q-56 165 -160 284l196 135q128 -148 200.5 -346.5t72.5 -396.5v-336q0 -198 -72 -395.5t-201 -349.5l-196 135q102 120 157.5 283t55.5 327v336q0 159 -53 324z" />
<glyph unicode="*" horiz-adv-x="940" d="M766 838l-186 -142l-109 150l-109 -150l-186 142l111 151l-185 64l72 209l178 -60v182h242v-184l178 60l66 -211l-181 -60z" />
<glyph unicode="+" horiz-adv-x="1005" d="M627 0h-248v338h-338v223h338v338h248v-338h338v-223h-338v-338z" />
<glyph unicode="," horiz-adv-x="565" d="M168 -346l-186 108q88 144 129 258q42 119 57 275l272 -41q-52 -336 -272 -600z" />
<glyph unicode="-" horiz-adv-x="765" d="M102 684h564v-223h-564v223z" />
<glyph unicode="." horiz-adv-x="548" d="M166 242q45 45 108 45q65 0 109.5 -45t44.5 -107q0 -63 -44 -107t-110 -44q-63 0 -108 44t-45 107q0 62 45 107z" />
<glyph unicode="/" horiz-adv-x="823" d="M276 0h-276l575 1384h279z" />
<glyph unicode="0" horiz-adv-x="1300" d="M1077 1206q172 -199 172 -514q0 -313 -172 -512q-173 -200 -422 -200q-252 0 -428 200t-176 514q0 312 176 512q175 199 428 199q250 0 422 -199zM893 340q96 137 96 356q0 222 -94 353q-95 133 -240 133q-143 0 -243 -133q-101 -134 -101 -357q0 -220 101 -354 q102 -135 243 -135q144 0 238 137z" />
<glyph unicode="1" horiz-adv-x="550" d="M10 1161v223h408v-1384h-254v1161h-154z" />
<glyph unicode="2" horiz-adv-x="1042" d="M954 721q-65 -97 -192 -195q-224 -175 -309 -303h557v-223h-959q50 194 174 350q124 157 357 338q176 132 176 264q0 107 -62.5 170.5t-163.5 63.5q-68 0 -131 -46t-100 -130l-223 88q66 148 184.5 227.5t276.5 79.5q214 0 346 -123q129 -123 129 -334q0 -136 -60 -227z " />
<glyph unicode="3" horiz-adv-x="1052" d="M868 113q-145 -133 -356 -133q-331 0 -481 305l225 102q88 -186 256 -186q109 0 177.5 69t68.5 193q0 118 -77.5 193t-199.5 75h-162v172l263 258h-441v223h785v-176l-287 -282q174 -35 273.5 -161.5t99.5 -301.5q0 -218 -144 -350z" />
<glyph unicode="4" horiz-adv-x="1054" d="M866 596h181v-223h-181v-373h-256v373h-579v166l616 845h219v-788zM610 956l-256 -360h256v360z" />
<glyph unicode="5" horiz-adv-x="1046" d="M752 487q0 119 -70.5 188.5t-181.5 69.5q-82 0 -135 -25.5t-101 -94.5l-168 116l101 643h675v-223h-460l-29 -203q87 19 121 19q215 0 360 -133q144 -135 144 -352q0 -221 -140 -367q-142 -145 -360 -145q-146 0 -269.5 73.5t-197.5 204.5l199 148q46 -96 117.5 -148.5 t148.5 -52.5q104 0 174 82q72 81 72 200z" />
<glyph unicode="6" horiz-adv-x="1122" d="M1061 481q0 -216 -143 -356q-144 -141 -357 -141q-210 0 -354 141q-146 143 -146 356q0 105 60 234l323 669h275l-199 -415q8 2 41 2q214 0 357 -137t143 -353zM803 481q0 121 -68 194t-174 73q-102 0 -174 -72q-70 -70 -70 -195q0 -122 70 -198t174 -76t174 76 q68 77 68 198z" />
<glyph unicode="7" horiz-adv-x="1003" d="M672 1161h-625v223h963q-77 -287 -277 -690q-212 -425 -264 -694h-260q39 209 110 385q65 167 187 408q117 230 166 368z" />
<glyph unicode="8" horiz-adv-x="1083" d="M551 -18q-209 0 -348 133q-142 133 -142 329q0 238 183 365q-90 90 -90 244q0 150 114 252q112 100 275 100q168 0 286 -100q119 -101 119 -252q0 -154 -90 -244q182 -126 182 -365q0 -196 -139 -329q-142 -133 -350 -133zM549 684q-95 0 -161 -68.5t-66 -171.5t66 -171 t163 -68q95 0 162 68t67 171q0 102 -68 171t-163 69zM649 944q39 39 39 105q0 56 -41.5 94.5t-99.5 38.5q-57 0 -95 -37t-38 -96q-3 -48 22 -84t62 -51t79.5 -8t71.5 38z" />
<glyph unicode="9" horiz-adv-x="1122" d="M1061 903q0 -104 -60 -233l-323 -670h-275l199 416q-8 -2 -41 -2q-211 0 -354 137q-146 140 -146 352q0 214 146 357q144 141 354 141q213 0 357 -141q143 -140 143 -357zM805 903q0 123 -70 199t-174 76q-105 0 -172 -76q-70 -76 -70 -199q0 -124 70 -194 q69 -72 172 -72q102 0 174 72q70 70 70 194z" />
<glyph unicode=":" horiz-adv-x="548" d="M385 774q43 -46 43 -106q0 -64 -44 -108t-110 -44q-63 0 -108 44.5t-45 107.5q0 62 45 106.5t108 44.5q66 0 111 -45zM385 242q43 -46 43 -107q0 -63 -44 -107t-110 -44q-63 0 -108 44t-45 107q0 62 45 107t108 45q66 0 111 -45z" />
<glyph unicode=";" horiz-adv-x="548" d="M168 295l272 -41q-52 -336 -272 -600l-186 108l36 60q123 199 150 473zM453 668q0 -64 -44.5 -108t-109.5 -44q-63 0 -108.5 44.5t-45.5 107.5q0 62 45.5 106.5t108.5 44.5q65 0 109.5 -44.5t44.5 -106.5z" />
<glyph unicode="&#x3c;" horiz-adv-x="1005" d="M72 592l862 489v-266l-510 -285l510 -286v-267l-862 490v125z" />
<glyph unicode="=" horiz-adv-x="1005" d="M965 520h-924v223h924v-223zM41 395h924v-223h-924v223z" />
<glyph unicode="&#x3e;" horiz-adv-x="1005" d="M582 530l-510 285v266l862 -489v-125l-862 -490v267z" />
<glyph unicode="?" horiz-adv-x="1048" d="M616 467v-109h-254v134q0 150 209 221q152 53 152 217q0 105 -66 178.5t-165 73.5q-171 0 -263 -176l-198 124q71 132 192 203.5t269 71.5q199 0 344 -139q141 -138 141 -336q0 -153 -87.5 -268t-240.5 -162q-33 -9 -33 -33zM643 135q0 -63 -44 -107t-110 -44 q-63 0 -108 44t-45 107q0 62 45 107t108 45q65 0 109.5 -45t44.5 -107z" />
<glyph unicode="@" horiz-adv-x="1763" d="M926 758q-108 0 -189 -66l-174 164q168 125 363 125q204 0 326 -105.5t122 -283.5v-391q98 6 152.5 92.5t54.5 234.5q0 304 -182 492q-180 186 -447 186q-266 0 -465 -196q-200 -197 -200 -492q0 -274 178 -473q179 -203 416 -203h499v-219h-499q-343 0 -586 264 q-244 268 -244 633q-2 188 71.5 355.5t197 284t289 183t343.5 62.5q367 0 617 -244q248 -245 248 -633q0 -214 -111 -370q-112 -158 -330 -158h-256v33q-103 -53 -207 -53q-181 0 -290 100q-113 98 -113 248q0 142 121 237q121 92 301 92q98 0 178 -30q-30 131 -184 131z M1057 236q45 33 45 94q0 52 -48 88.5t-120 36.5q-71 0 -119.5 -36t-48.5 -87q0 -52 50 -92.5t118 -40.5q77 0 123 37z" />
<glyph unicode="A" horiz-adv-x="1232" d="M1051 797q112 -347 153 -797h-268q-21 308 -80 557h-477q-55 -214 -82 -557h-266q38 442 153 793q116 351 287 528q81 84 145.5 84t143.5 -80q178 -178 291 -528zM442 768h349q-67 211 -173 362q-109 -145 -176 -362z" />
<glyph unicode="B" d="M987 1063q0 -131 -84 -209q225 -95 225 -365q0 -223 -145 -356q-148 -133 -371 -133h-479v1384h494q159 0 262 -92q98 -91 98 -229zM868 471q0 107 -69 170.5t-176 63.5h-232v-478h221q108 0 182 68t74 176zM698 1122q-27 35 -80 35h-227v-225h221q40 -4 68.5 15t39 48.5 t5.5 64.5t-27 62z" />
<glyph unicode="C" horiz-adv-x="1323" d="M1124 356l168 -174q-239 -202 -510 -202q-299 0 -510 208t-211 502q0 296 211 504q212 209 510 209q262 0 500 -197l-156 -184q-168 154 -344 154q-190 0 -323 -142q-133 -145 -133 -344q0 -198 133 -340q131 -143 323 -143q180 0 342 149z" />
<glyph unicode="D" horiz-adv-x="1304" d="M1243 692q0 -287 -205 -489q-206 -203 -499 -203h-406v1384h406q294 0 499 -202t205 -490zM852 1022q-129 135 -313 135h-148v-930h148q184 0 313 135q127 136 127 330t-127 330z" />
<glyph unicode="E" horiz-adv-x="985" d="M799 627h-408v-400h533v-227h-791v1384h791v-227h-533v-303h408v-227z" />
<glyph unicode="F" horiz-adv-x="946" d="M905 1157h-514v-303h389v-227h-389v-627h-258v1384h772v-227z" />
<glyph unicode="G" horiz-adv-x="1435" d="M1280 1212l-158 -182q-165 148 -340 148q-190 0 -323 -142q-133 -145 -133 -346q0 -198 133 -340q131 -143 323 -143q155 0 285 106v250h-377v228h635v-570q-235 -241 -543 -241q-299 0 -510 208t-211 502q0 298 211 506q212 209 510 209q265 0 498 -193z" />
<glyph unicode="H" horiz-adv-x="1263" d="M872 627h-481v-627h-258v1384h258v-530h481v530h258v-1384h-258v627z" />
<glyph unicode="I" horiz-adv-x="524" d="M133 1384h258v-1384h-258v1384z" />
<glyph unicode="J" horiz-adv-x="958" d="M567 1384h260v-956q0 -212 -121 -330t-323 -118q-217 0 -373 188l174 174q105 -135 199 -135q86 0 135 57t49 164v956z" />
<glyph unicode="K" horiz-adv-x="1257" d="M883 1384h313q-134 -184 -313 -366q-183 -183 -340 -279q353 -224 706 -739h-303q-256 357 -555 557v-557h-258v1384h258v-471q143 91 257.5 203.5t234.5 267.5z" />
<glyph unicode="L" horiz-adv-x="944" d="M133 0v1384h258v-1159h533v-225h-791z" />
<glyph unicode="M" horiz-adv-x="1667" d="M1169 1063q-167 -281 -217 -655h-237q-49 372 -215 655q-174 -320 -201 -1063h-258q34 954 344 1337q37 44 56.5 56t60.5 12q42 0 63.5 -13t52.5 -57q135 -180 213 -381q89 210 220 381q5 7 14.5 19t13 15.5t10.5 11.5t11 10t11.5 6t14.5 5t16.5 2t22.5 1q41 0 60.5 -12 t56.5 -56q309 -377 344 -1337h-258q-27 741 -199 1063z" />
<glyph unicode="N" horiz-adv-x="1263" d="M913 1384h258v-1384h-225l-555 850v-850h-258v1384h225l555 -847v847z" />
<glyph unicode="O" horiz-adv-x="1562" d="M782 -20q-299 0 -510 208t-211 502q0 295 211 506q212 209 510 209q296 0 508 -209q211 -211 211 -506q0 -294 -211 -502t-508 -208zM782 1180q-191 0 -323 -144q-133 -145 -133 -346q0 -197 133 -342q131 -143 323 -143q193 0 324 143q133 145 133 342q0 201 -133 346 q-132 144 -324 144z" />
<glyph unicode="P" horiz-adv-x="1142" d="M592 418h-201v-418h-258v1384h459q209 0 360 -139q150 -141 150 -342t-150 -342q-149 -143 -360 -143zM592 1157h-201v-510h201q104 0 178 74t74 180q0 105 -74 182q-74 74 -178 74z" />
<glyph unicode="Q" horiz-adv-x="1599" d="M1106 53q-152 -73 -324 -73q-299 0 -510 208t-211 502q0 298 211 506q212 209 510 209t510 -209q209 -209 209 -506q0 -288 -203 -491q126 -151 242 -318h-297q-72 100 -137 172zM1071 436q10 -9 20.5 -19t21.5 -22t17 -18q109 133 109 313q0 199 -133 344 q-132 144 -324 144q-191 0 -323 -144q-133 -145 -133 -344q0 -198 133 -340q131 -143 323 -143q70 0 152 29l-176 157l147 189q74 -64 111 -95q24 -24 55 -51z" />
<glyph unicode="R" horiz-adv-x="1294" d="M1102 901q0 -116 -55.5 -221t-153.5 -174q201 -177 393 -506h-287q-267 418 -477 418h-131v-418h-258v1384h459q212 0 362 -141q148 -142 148 -342zM592 1157h-201v-510h201q104 0 178 74t74 180q0 105 -74 182q-74 74 -178 74z" />
<glyph unicode="S" horiz-adv-x="1079" d="M901 109q-138 -129 -346 -129q-167 0 -305.5 88.5t-218.5 244.5l227 103q108 -209 289 -209q101 0 168 65.5t67 169.5q0 211 -274 232q-165 12 -281 102q-112 87 -112 252q0 167 118 270q117 105 314 105q249 0 438 -219l-192 -152q-120 144 -248 144q-78 0 -125 -39.5 t-47 -102.5q0 -122 186 -137q227 -17 354 -133t127 -313q0 -212 -139 -342z" />
<glyph unicode="T" horiz-adv-x="1024" d="M20 1157v227h984v-227h-361v-1157h-258v1157h-365z" />
<glyph unicode="U" horiz-adv-x="1308" d="M915 1384h259v-882q0 -226 -152 -375q-150 -147 -367 -147q-216 0 -366 147q-154 145 -154 371v886h264v-882q0 -129 76 -211t180 -82q103 0 183 86q77 83 77 213v876z" />
<glyph unicode="V" horiz-adv-x="1232" d="M623 -20q-67 -3 -125 55q-190 191 -310 549q-116 344 -157 800h266q59 -735 321 -1105q266 386 318 1105h268q-41 -457 -155 -804q-120 -357 -314 -545q-52 -52 -112 -55z" />
<glyph unicode="W" horiz-adv-x="1667" d="M1368 1384h258q-34 -954 -344 -1337q-36 -44 -55.5 -55.5t-61.5 -11.5t-63.5 13t-52.5 56q-135 180 -213 381q-89 -210 -220 -381q-5 -6 -15 -18.5t-13 -16t-10.5 -11.5t-11 -9.5t-11 -6t-14.5 -5t-16.5 -1.5t-22.5 -1q-42 0 -61.5 11.5t-55.5 55.5q-309 377 -344 1337 h258q27 -740 199 -1062q167 281 217 655h237q49 -372 215 -655q174 320 201 1062z" />
<glyph unicode="X" horiz-adv-x="1259" d="M938 1384h283q-198 -417 -428 -677q96 -116 243 -355q128 -212 183 -352h-273q-45 105 -135 256q-99 157 -182 264q-83 -107 -180 -266q-93 -156 -138 -254h-270q62 158 186 362q131 219 238 347q-236 266 -424 675h281q152 -305 307 -493q162 203 309 493z" />
<glyph unicode="Y" d="M713 385v-385h-258v385q-292 325 -424 999h264q108 -535 289 -780q182 244 290 780h265q-138 -685 -426 -999z" />
<glyph unicode="Z" horiz-adv-x="1200" d="M1092 0h-1041l676 1157h-569v227h993l-676 -1157h617v-227z" />
<glyph unicode="[" horiz-adv-x="518" d="M72 1384h374v-223h-118v-1491h118v-223h-374v1937z" />
<glyph unicode="\" horiz-adv-x="1136" d="M840 0l-840 1317h299l840 -1317h-299z" />
<glyph unicode="]" horiz-adv-x="518" d="M190 1161h-118v223h374v-1937h-374v223h118v1491z" />
<glyph unicode="^" horiz-adv-x="1046" d="M383 721h-281l347 596h151l346 -596h-280l-142 244z" />
<glyph unicode="_" horiz-adv-x="991" d="M0 -147h993v-226h-993v226z" />
<glyph unicode="`" horiz-adv-x="524" d="M477 1126l-452 119l43 162l452 -119z" />
<glyph unicode="a" d="M801 0v49q-92 -69 -236 -69q-224 0 -362 141q-142 142 -142 350q0 205 148 350q147 144 356 144q141 0 236 -68v47h256v-944h-256zM319 471q0 -117 72 -195q71 -77 174 -77q105 0 174 75q68 77 68 197q0 122 -68 199q-69 75 -174 75t-174 -75q-72 -78 -72 -199z" />
<glyph unicode="b" d="M961 123q-146 -143 -357 -143q-143 0 -235 69v-49h-256v1384h256v-487q103 68 235 68q210 0 357 -144t147 -350q0 -204 -147 -348zM780 670q-69 75 -176 75q-106 0 -172 -75q-70 -76 -70 -199q0 -121 70 -197q66 -75 172 -75q105 0 176 77q70 76 70 195q0 123 -70 199z " />
<glyph unicode="c" horiz-adv-x="1024" d="M797 315l178 -139q-196 -196 -410 -196q-210 0 -356 143q-148 145 -148 348q0 205 148 350q147 144 356 144q227 0 391 -179l-159 -159q-100 118 -232 118q-106 0 -176 -79q-72 -81 -72 -197q0 -115 72 -193q70 -79 176 -79q129 0 232 118z" />
<glyph unicode="d" d="M801 0v49q-92 -69 -236 -69q-210 0 -356 143q-148 145 -148 348q0 205 148 350q147 144 356 144q141 0 236 -68v487h256v-1384h-256zM319 471q0 -117 72 -195q71 -77 174 -77q105 0 174 75q68 77 68 197q0 122 -68 199q-69 75 -174 75t-174 -75q-72 -78 -72 -199z" />
<glyph unicode="e" horiz-adv-x="1105" d="M885 297l153 -141q-170 -176 -426 -176q-236 0 -393 145q-158 146 -158 354q0 199 148 344q145 142 356 142q201 0 338 -125t137 -285q0 -96 -56 -149.5t-169 -53.5h-475q58 -153 274 -153q170 0 271 98zM328 549h440q14 0 14 18q0 62 -63 119q-65 59 -156 59 q-86 0 -150 -55t-85 -141z" />
<glyph unicode="f" horiz-adv-x="774" d="M836 1251l-187 -157q-58 88 -145 88q-51 0 -87 -39.5t-36 -95.5v-103h297v-223h-297v-721h-254v721h-117v223h117v103q0 147 109 253q108 105 268 105q205 0 332 -154z" />
<glyph unicode="g" d="M801 944h256v-948q0 -202 -176 -340q-174 -137 -432 -137v223q150 0 251 76t101 184v47q-87 -69 -236 -69q-210 0 -356 143q-148 145 -148 348q0 205 148 350q147 144 356 144q127 0 236 -68v47zM739 668q-71 77 -174 77q-105 0 -176 -77q-72 -78 -72 -197 q0 -118 71 -195t177 -77q104 0 173 77.5t69 194.5t-68 197z" />
<glyph unicode="h" horiz-adv-x="1157" d="M909 840q135 -126 135 -305v-535h-253v539q0 87 -61.5 146.5t-149.5 59.5q-87 0 -149 -60t-62 -146v-539h-256v1384h256v-487q89 68 211 68q195 0 329 -125z" />
<glyph unicode="i" horiz-adv-x="479" d="M113 0v944h254v-944h-254zM129 1075q-27 24 -37.5 59.5t-3 70t26.5 65t52.5 48t72.5 15.5q50 3 88.5 -25.5t54.5 -69t9 -87t-40 -76.5q-44 -43 -112 -43t-111 43z" />
<glyph unicode="j" horiz-adv-x="481" d="M244 -369q-125 -110 -344 -110v223q97 0 155 50t58 130v1020h256v-1038q0 -165 -125 -275zM131 1075q-27 24 -37.5 59.5t-3 70t26.5 65t52.5 48t72.5 15.5q48 3 87 -25.5t55.5 -69t10 -87t-40.5 -76.5q-44 -43 -112 -43t-111 43z" />
<glyph unicode="k" horiz-adv-x="1116" d="M369 371v-371h-256v1384h256v-667q166 100 299 227h342q-267 -273 -478 -401q300 -181 584 -543h-319q-194 231 -428 371z" />
<glyph unicode="l" horiz-adv-x="479" d="M113 1384h256v-1384h-256v1384z" />
<glyph unicode="m" horiz-adv-x="1538" d="M1518 0h-250q-67 380 -197 627q-134 -262 -180 -490h-244q-62 249 -178 488q-132 -255 -199 -625h-250q37 198 127 457q90 262 185 415q33 55 59.5 74t75.5 19q78 0 131 -84q81 -123 174 -342q93 219 174 342q53 84 129 84t135 -93q96 -152 183 -413q92 -278 125 -459z " />
<glyph unicode="n" horiz-adv-x="1157" d="M909 840q135 -126 135 -301v-539h-253v543q0 85 -61.5 143.5t-149.5 58.5q-87 0 -149 -59t-62 -143v-543h-256v944h256v-47q86 68 211 68q192 0 329 -125z" />
<glyph unicode="o" horiz-adv-x="1130" d="M565 -20q-208 0 -356 145t-148 346q0 203 148 348q149 146 356 146t359 -146q147 -144 147 -348q0 -202 -147 -346q-148 -145 -359 -145zM563 745q-104 0 -175 -78t-71 -196q0 -119 72 -197q71 -77 174 -77t174 77q72 78 72 197q0 118 -71 196t-175 78z" />
<glyph unicode="p" d="M1108 473q0 -204 -147 -348q-148 -145 -357 -145q-134 0 -235 67v-487h-256v1384h256v-47q92 68 235 68q210 0 357 -144t147 -348zM780 670q-69 75 -176 75q-106 0 -172 -75q-70 -76 -70 -197t70 -197q68 -77 172 -77q105 0 176 77q70 76 70 197t-70 197z" />
<glyph unicode="q" d="M1057 -440h-256v489q-92 -69 -236 -69q-208 0 -356 145t-148 348t148 348q147 144 356 144q142 0 236 -70v49h256v-1384zM319 473q0 -120 70.5 -197t177.5 -77q105 0 173.5 76.5t68.5 197.5q0 120 -68.5 196t-173.5 76q-107 0 -177.5 -76t-70.5 -196z" />
<glyph unicode="r" horiz-adv-x="854" d="M369 944v-47q25 30 77 49t101 19q159 0 297 -138l-160 -155q-75 69 -162 69q-70 0 -111.5 -51t-41.5 -141v-549h-256v944h256z" />
<glyph unicode="s" horiz-adv-x="960" d="M864 801l-159 -146q-90 90 -218 90q-116 0 -116 -67q0 -66 118 -72q207 -6 314.5 -86.5t107.5 -228.5q0 -145 -105.5 -228t-299.5 -83q-291 0 -465 223l172 141q117 -147 289 -147q73 0 113 25t40 67q0 90 -176 96q-166 4 -264 86.5t-98 216.5q0 127 91.5 202t260.5 75 q245 0 395 -164z" />
<glyph unicode="t" horiz-adv-x="862" d="M686 270l168 -145q-145 -145 -332 -145q-164 0 -272 108q-107 107 -107 258v375h-133v223h133v256h256v-256h314v-223h-314v-381q0 -61 36.5 -102t92.5 -41q100 0 158 73z" />
<glyph unicode="u" horiz-adv-x="1155" d="M788 944h254v-520q0 -187 -131 -315q-132 -129 -333 -129q-205 0 -334 129q-131 128 -131 315v520h256v-518q0 -99 56.5 -164t152.5 -65q95 0 152.5 65t57.5 164v518z" />
<glyph unicode="v" horiz-adv-x="1091" d="M547 -20q-74 0 -150 98q-80 103 -168 301q-94 213 -133 330q-47 130 -76 235h261q135 -439 266 -649q129 213 262 649h262q-180 -617 -389 -881q-65 -83 -135 -83z" />
<glyph unicode="w" horiz-adv-x="1538" d="M1268 944h250q-36 -195 -125 -455q-93 -266 -187 -417q-33 -55 -59.5 -73.5t-75.5 -18.5q-78 0 -131 83q-79 121 -174 343q-95 -222 -174 -343q-53 -83 -129 -83t-135 92q-96 152 -183 413q-92 278 -125 459h250q67 -380 197 -627q134 262 180 490h244q62 -249 178 -488 q132 255 199 625z" />
<glyph unicode="x" horiz-adv-x="1134" d="M291 0h-281q144 258 387 504q-197 206 -340 440h285q91 -136 223 -274q135 142 226 274h286q-153 -246 -344 -440q255 -261 393 -504h-282q-96 147 -279 336q-182 -188 -274 -336z" />
<glyph unicode="y" horiz-adv-x="1073" d="M797 944h256q-88 -381 -232 -635q-134 -239 -198 -401q-62 -157 -99 -348h-258q48 283 133 481q-23 51 -92 170q-99 167 -170 346q-65 166 -117 387h259q95 -369 258 -645l92 168q99 183 168 477z" />
<glyph unicode="z" horiz-adv-x="1067" d="M967 0h-885l453 725h-408v219h868l-454 -725h426v-219z" />
<glyph unicode="{" horiz-adv-x="727" d="M657 -330v-223h-145q-96 0 -162.5 64t-66.5 157v533q0 102 -66 102h-145v223h145q66 0 66 103v536q0 91 66.5 155t162.5 64h145v-223h-120v-532q0 -130 -68 -213q68 -86 68 -215v-531h120z" />
<glyph unicode="|" horiz-adv-x="612" d="M180 1317h256v-1690h-256v1690z" />
<glyph unicode="}" horiz-adv-x="727" d="M657 303h-145q-66 0 -66 -102v-533q0 -93 -66.5 -157t-162.5 -64h-145v223h121v531q0 130 67 215q-67 82 -67 213v532h-121v223h145q96 0 162.5 -64t66.5 -155v-536q0 -103 66 -103h145v-223z" />
<glyph unicode="~" horiz-adv-x="1067" d="M784 766h265q-41 -135 -141.5 -221t-217.5 -86q-76 0 -186 49q-112 47 -137 47q-56 0 -91 -80h-256q36 127 134 219q95 86 200 86q87 0 205 -47q115 -47 137 -47q30 0 55 24t33 56z" />
<glyph unicode="&#xa1;" horiz-adv-x="626" d="M440 -436h-256v1026h256v-1026zM207 713q-34 30 -41 75.5t9 85t53.5 67t84.5 24.5q65 0 108.5 -43t43.5 -105t-43.5 -104.5t-108.5 -42.5q-63 0 -106 43z" />
<glyph unicode="&#xa2;" horiz-adv-x="1081" d="M1030 791l-205 -132q-82 138 -139 177v-459q72 51 141 168l199 -133q-133 -239 -340 -285v-127h-246v129q-161 43 -270 176t-109 297q0 166 109 299q107 131 270 174v94h246v-94q212 -59 344 -284zM319 602q0 -151 121 -231v460q-121 -80 -121 -229z" />
<glyph unicode="&#xa3;" horiz-adv-x="1171" d="M856 608h-350q2 -8 2 -39q0 -181 -37 -282q39 -5 141 -47q100 -41 154 -41t95 26.5t89 89.5l191 -131q-80 -113 -163.5 -158.5t-213.5 -45.5q-98 0 -211 49q-115 47 -166 47q-33 0 -51 -41l-14 -35h-291q223 282 223 569q0 5 -1 20t-1 19h-133v223h90q-8 55 -8 136 q0 193 133 317q133 121 323 121q246 0 435 -195l-172 -151q-121 127 -263 127q-86 0 -143 -61t-57 -158q0 -74 10 -136h389v-223z" />
<glyph unicode="&#xa4;" horiz-adv-x="1193" d="M819 1012l137 135l166 -166l-133 -131q66 -111 66 -227q0 -119 -66 -230l133 -131l-166 -166l-137 137q-104 -55 -223 -55q-120 0 -221 55l-137 -137l-166 164l133 133q-68 109 -68 230q0 116 66 227l-131 131l166 168l135 -137q98 55 223 55q122 0 223 -55zM743 459 q39 38 54 92.5t4 107.5t-37 99.5t-71.5 73.5t-96.5 24q-88 0 -149.5 -68t-61.5 -165t61.5 -165.5t149.5 -68.5q86 0 147 70z" />
<glyph unicode="&#xa5;" horiz-adv-x="1126" d="M922 168h-232v-168h-254v168h-229v164h229v61h-229v164h143q-207 275 -319 760h260q103 -424 272 -645q180 236 271 645h264q-126 -505 -320 -760h144v-164h-232v-61h232v-164z" />
<glyph unicode="&#xa6;" horiz-adv-x="870" d="M563 643h-256v739h256v-739zM307 299h256v-739h-256v739z" />
<glyph unicode="&#xa7;" horiz-adv-x="985" d="M487 1184q-67 0 -105 -25t-38 -67q0 -46 49.5 -73.5t143.5 -27.5q162 0 258 -79t96 -201q0 -96 -64 -172q86 -77 86 -215q0 -156 -107 -248t-304 -92q-329 0 -430 241l213 117q67 -135 217 -135q76 0 115.5 29.5t39.5 80.5q0 101 -176 101q-178 0 -272 82q-96 81 -96 200 q0 100 61 170q-84 78 -84 217q0 143 102.5 231.5t278.5 88.5q277 0 420 -227l-195 -111q-68 115 -209 115zM516 778h-31q-55 0 -86.5 -23t-31.5 -55q0 -31 31 -50t89 -19h31q55 0 86 23t31 57q0 30 -30.5 48.5t-88.5 18.5z" />
<glyph unicode="&#xa8;" horiz-adv-x="600" d="M35 1354q25 23 59.5 27.5t64.5 -6.5t51 -37.5t21 -61.5q0 -43 -34.5 -76t-81.5 -33q-44 0 -79.5 33t-35.5 76t35 78zM369 1354q25 23 59.5 27.5t64.5 -6.5t51 -37.5t21 -61.5q0 -43 -34.5 -76t-81.5 -33q-44 0 -79.5 33t-35.5 76t35 78z" />
<glyph unicode="&#xa9;" horiz-adv-x="1501" d="M1239 1137q201 -201 201 -480t-201 -477t-489 -198q-290 0 -488 198q-201 198 -201 477q0 280 203 480q198 198 486 198t489 -198zM1120 1022q-155 152 -370 152q-217 0 -369 -152q-154 -151 -154 -365q0 -213 154 -364q152 -152 369 -152t372 152q152 152 152 364 q0 214 -154 365zM770 901q-99 0 -166 -68t-67 -167q0 -101 67 -168.5t172 -67.5q121 0 201 111l143 -119q-73 -86 -173 -134t-204 -48q-178 0 -303 125q-127 127 -127 301t127 301q126 123 301 123q219 0 369 -175l-123 -122q-80 108 -217 108z" />
<glyph unicode="&#xaa;" horiz-adv-x="874" d="M600 682v41q-72 -57 -176 -57q-169 0 -272 106q-105 105 -105 262q0 156 111 264q107 107 266 107q97 0 176 -43v27h193v-707h-193zM240 1034q0 -88 53 -147q54 -57 131.5 -57t130.5 57q51 57 51 147q0 93 -51 150q-38 45 -94.5 54.5t-106.5 -12.5t-84 -74t-30 -118z" />
<glyph unicode="&#xab;" horiz-adv-x="1243" d="M571 453l430 430l168 -168l-264 -262l262 -265l-163 -168zM502 883l168 -168l-264 -262l262 -265l-164 -168l-432 433z" />
<glyph unicode="&#xac;" horiz-adv-x="430" d="M100 729q48 45 115 45t115.5 -44.5t48.5 -106.5t-48.5 -107t-115.5 -45q-49 -2 -90.5 26t-60 68t-11 86.5t46.5 77.5z" />
<glyph unicode="&#xad;" horiz-adv-x="1005" d="M41 561h924v-223h-924v223z" />
<glyph unicode="&#xae;" horiz-adv-x="1501" d="M750 -18q-290 0 -488 198q-201 198 -201 477q0 280 203 480q198 198 486 198t489 -198q201 -201 201 -480t-201 -477t-489 -198zM750 1174q-217 0 -369 -152q-154 -151 -154 -365q0 -213 154 -364q152 -152 369 -152t372 152q152 152 152 364q0 214 -154 365 q-155 152 -370 152zM813 426q-30 61 -76 61h-53v-229h-201v813h254q123 0 213 -84q86 -86 86 -209q0 -116 -84 -200q92 -109 92 -320h-202q0 99 -29 168zM737 887h-53v-217h53q41 0 70 32t29 76q0 45 -29 77t-70 32z" />
<glyph unicode="&#xaf;" horiz-adv-x="483" d="M0 1313h483v-146h-483v146z" />
<glyph unicode="&#xb0;" horiz-adv-x="747" d="M590 1321q88 -82 88 -203q0 -118 -88 -200q-90 -84 -217 -84q-123 0 -213 84q-88 82 -88 200q0 123 88 205t213 82q127 0 217 -84zM375 1214q-40 0 -66 -26t-26 -72q0 -42 26 -65q31 -26 65.5 -27.5t62.5 26t28 70.5t-25.5 68.5t-64.5 25.5z" />
<glyph unicode="&#xb1;" horiz-adv-x="1005" d="M379 899h248v-242h338v-223h-338v-201h-248v201h-338v223h338v242zM965 205v-223h-924v223h924z" />
<glyph unicode="&#xb2;" horiz-adv-x="688" d="M354 1241q-88 0 -141 -115l-164 66q95 213 309 213q142 0 228 -81.5t86 -219.5q0 -89 -37.5 -148.5t-128.5 -128.5q-129 -105 -178 -170h340v-165h-635q35 130 115.5 236.5t228.5 219.5q106 78 106 158q0 61 -36 98t-93 37z" />
<glyph unicode="&#xb3;" horiz-adv-x="696" d="M575 559q-94 -88 -233 -88q-217 0 -322 211l164 76q62 -123 158 -123q63 0 103 40.5t40 112.5q0 69 -45.5 113.5t-117.5 44.5h-115v127l149 146h-262v165h522v-129l-170 -165q107 -29 165.5 -110t58.5 -192q0 -143 -95 -229z" />
<glyph unicode="&#xb4;" horiz-adv-x="524" d="M47 1126l-43 162l453 119l43 -162z" />
<glyph unicode="&#xb5;" horiz-adv-x="532" d="M154 729q45 45 112 45t113.5 -44.5t46.5 -106.5t-46.5 -107t-113.5 -45q-49 -2 -88.5 26t-57.5 68.5t-10.5 86.5t44.5 77z" />
<glyph unicode="&#xb6;" horiz-adv-x="1212" d="M741 1163v-1163h-254v465q-188 15 -317 147t-129 312q0 193 143 327q145 133 344 133h596v-221h-96v-841q0 -101 143 -101v-221q-175 0 -265.5 84t-90.5 235v844h-74z" />
<glyph unicode="&#xb7;" horiz-adv-x="532" d="M152 729q48 45 114 45q67 0 115.5 -44.5t48.5 -106.5t-48.5 -107t-115.5 -45q-49 -2 -90 26t-60 68t-11 86.5t47 77.5z" />
<glyph unicode="&#xb8;" horiz-adv-x="276" d="M0 0h180q96 -110 96 -209q0 -92 -70 -159.5t-194 -73.5v196q66 6 66 60q0 64 -78 186z" />
<glyph unicode="&#xb9;" horiz-adv-x="393" d="M20 1219v165h283v-901h-184v736h-99z" />
<glyph unicode="&#xba;" horiz-adv-x="847" d="M692 1296q111 -108 111 -262q0 -152 -111 -260t-268 -108q-155 0 -266 108t-111 260q0 151 111 262q112 109 266 109q156 0 268 -109zM553 887q53 59 53 147q0 91 -53 150q-51 57 -131 57q-79 0 -131.5 -58.5t-52.5 -148.5q0 -87 54 -146t130 -59q79 0 131 58z" />
<glyph unicode="&#xbb;" horiz-adv-x="1243" d="M571 715l168 168l430 -430l-432 -433l-164 168l263 265zM670 453l-432 -433l-164 168l262 265l-264 262l168 168z" />
<glyph unicode="&#xbc;" horiz-adv-x="1581" d="M1208 0v236h-366v120l397 545h156v-500h114v-165h-114v-236h-187zM295 0l577 1384h205l-579 -1384h-203zM20 1384h283v-901h-186v736h-97v165zM1208 401v179l-125 -179h125z" />
<glyph unicode="&#xbd;" horiz-adv-x="1609" d="M1223 750q-89 0 -142 -115l-163 65q95 213 309 213q142 0 227.5 -81t85.5 -220q0 -88 -37 -147t-127 -129q-119 -89 -180 -170h340v-166h-635q35 131 116 238t230 219q107 82 107 157q0 62 -35.5 99t-95.5 37zM498 0h-203l577 1384h205zM20 1219v165h283v-901h-186v736 h-97z" />
<glyph unicode="&#xbe;" horiz-adv-x="1781" d="M680 788q0 -144 -94 -229q-94 -88 -234 -88q-216 0 -321 211l166 76q58 -123 155 -123q63 0 103.5 40.5t40.5 112.5q0 69 -46 113.5t-118 44.5h-115v127l150 146h-263v165h523v-129l-170 -165q107 -29 165 -110t58 -192zM1044 236v120l396 545h157v-500h115v-165h-115 v-236h-186v236h-367zM1298 1384l-579 -1384h-201l578 1384h202zM1411 580l-125 -179h125v179z" />
<glyph unicode="&#xbf;" horiz-adv-x="1048" d="M606 688h41v-151q0 -148 -209 -222q-71 -24 -111 -87t-40 -146q0 -104 69 -176t162 -72q62 0 131.5 62.5t120.5 158.5l207 -137q-74 -141 -197.5 -224t-261.5 -83q-201 0 -344 137t-143 334q0 154 90.5 278t238.5 168q31 12 31 33v127h43q-76 46 -76 125q0 61 48 104.5 t114 43.5t113 -43.5t47 -104.5q0 -78 -74 -125z" />
<glyph unicode="&#xc0;" horiz-adv-x="1232" d="M1204 0h-268q-21 308 -80 557h-477q-55 -214 -82 -557h-266q38 442 153 793q116 351 287 528q81 84 145.5 84t143.5 -80q178 -178 291 -528q112 -347 153 -797zM379 1593l43 162l452 -119l-43 -161zM442 768h349q-67 211 -173 362q-109 -145 -176 -362z" />
<glyph unicode="&#xc1;" horiz-adv-x="1232" d="M1204 0h-268q-21 308 -80 557h-477q-55 -214 -82 -557h-266q38 442 153 793q116 351 287 528q81 84 145.5 84t143.5 -80q178 -178 291 -528q112 -347 153 -797zM401 1477l-43 161l453 119l43 -162zM442 768h349q-67 211 -173 362q-109 -145 -176 -362z" />
<glyph unicode="&#xc2;" horiz-adv-x="1232" d="M856 557h-477q-55 -214 -82 -557h-266q38 442 153 793q116 351 287 528q81 84 145.5 84t143.5 -80q178 -178 291 -528q112 -347 153 -797h-268q-21 308 -80 557zM905 1608l-84 -131l-203 131l-204 -131l-84 131l288 168zM442 768h349q-67 211 -173 362 q-109 -145 -176 -362z" />
<glyph unicode="&#xc3;" horiz-adv-x="1232" d="M856 557h-477q-55 -214 -82 -557h-266q38 442 153 793q116 351 287 528q81 84 145.5 84t143.5 -80q178 -178 291 -528q112 -347 153 -797h-268q-21 308 -80 557zM748 1683h233q-13 -97 -77 -151.5t-159 -54.5q-59 0 -118 26q-64 25 -82 25q-47 0 -62 -51h-233 q13 97 76.5 151.5t158.5 54.5q57 0 119 -24q62 -27 82 -27q47 0 62 51zM618 1130q-109 -145 -176 -362h349q-67 211 -173 362z" />
<glyph unicode="&#xc4;" horiz-adv-x="1232" d="M1051 797q112 -347 153 -797h-268q-21 308 -80 557h-477q-55 -214 -82 -557h-266q38 442 153 793q116 351 287 528q81 84 145.5 84t143.5 -80q178 -178 291 -528zM618 1130q-109 -145 -176 -362h349q-67 211 -173 362zM864 1663q35 -35 35 -78t-35 -75.5t-82 -32.5 q-44 0 -79 32.5t-35 75.5q0 46 35 77t78.5 30.5t82.5 -29.5zM334 1585q0 44 34 76.5t81 32.5t81.5 -32.5t34.5 -76.5q0 -43 -34.5 -75.5t-81.5 -32.5q-45 0 -80 33t-35 75z" />
<glyph unicode="&#xc5;" horiz-adv-x="1232" d="M1051 797q112 -347 153 -797h-268q-21 308 -80 557h-477q-55 -214 -82 -557h-266q38 442 153 793q116 351 287 528q81 84 145.5 84t143.5 -80q178 -178 291 -528zM616 1477q-82 0 -141 57t-59 135t59 134.5t141 56.5q61 3 111.5 -32t73 -86t13.5 -109.5t-56 -98.5 q-57 -57 -142 -57zM618 1130q-109 -145 -176 -362h349q-67 211 -173 362zM676 1726q-26 25 -61 25t-60 -25q-26 -25 -26 -59t26 -59q25 -26 60 -26t61 26q25 25 25 59t-25 59z" />
<glyph unicode="&#xc6;" horiz-adv-x="1497" d="M1436 1384v-227h-459v-389h334v-209h-334v-332h459v-227h-717v555h-273q-85 -224 -157 -555h-269q95 444 269 788q174 350 395 543q65 53 150 53h602zM545 768h174v283q-103 -129 -174 -283z" />
<glyph unicode="&#xc7;" horiz-adv-x="1323" d="M942 -209q0 -92 -70 -159.5t-194 -73.5v196q65 6 65 60q0 68 -69 174q-261 41 -436 239q-177 201 -177 463q0 296 211 504q212 209 510 209q262 0 500 -197l-156 -184q-168 154 -344 154q-190 0 -323 -142q-133 -145 -133 -344q0 -198 133 -340q131 -143 323 -143 q180 0 342 149l168 -174q-202 -171 -432 -198q82 -101 82 -193z" />
<glyph unicode="&#xc8;" horiz-adv-x="985" d="M799 627h-408v-400h533v-227h-791v1384h791v-227h-533v-303h408v-227zM750 1634l-43 -161l-453 118l43 162z" />
<glyph unicode="&#xc9;" horiz-adv-x="985" d="M799 627h-408v-400h533v-227h-791v1384h791v-227h-533v-303h408v-227zM686 1757l43 -162l-453 -118l-43 161z" />
<glyph unicode="&#xca;" horiz-adv-x="985" d="M924 227v-227h-791v1384h791v-227h-533v-303h408v-227h-408v-400h533zM319 1475l-83 131l288 168l287 -168l-84 -131l-203 131z" />
<glyph unicode="&#xcb;" horiz-adv-x="985" d="M799 854v-227h-408v-400h533v-227h-791v1384h791v-227h-533v-303h408zM420 1507q-32 -32 -82 -32q-45 0 -80 33t-35 75q0 44 34 76.5t81 32.5t82 -32.5t35 -76.5q0 -41 -35 -76zM592 1661q25 23 59.5 27.5t64.5 -6.5t51 -37.5t21 -61.5q0 -43 -34.5 -75.5t-81.5 -32.5 q-45 0 -80 33t-35 75q0 43 35 78z" />
<glyph unicode="&#xcc;" horiz-adv-x="524" d="M133 0v1384h258v-1384h-258zM457 1475l-453 118l43 162l453 -119z" />
<glyph unicode="&#xcd;" horiz-adv-x="524" d="M133 0v1384h258v-1384h-258zM68 1475l-43 161l452 119l43 -162z" />
<glyph unicode="&#xce;" horiz-adv-x="524" d="M391 1384v-1384h-258v1384h258zM471 1475l-203 131l-205 -131l-83 131l288 168l287 -168z" />
<glyph unicode="&#xcf;" horiz-adv-x="524" d="M133 0v1384h258v-1384h-258zM512 1661q35 -35 35 -78t-35 -75.5t-82 -32.5q-45 0 -80 33t-35 75q0 46 35 77t79 30.5t83 -29.5zM16 1661q25 23 59.5 27.5t64.5 -6.5t51.5 -37.5t21.5 -61.5q0 -43 -35 -75.5t-82 -32.5q-44 0 -79 32.5t-35 75.5q0 44 34 78z" />
<glyph unicode="&#xd0;" horiz-adv-x="1300" d="M1229 692q0 -287 -205 -489q-206 -203 -498 -203h-407v598h-119v227h119v559h407q293 0 498 -202t205 -490zM840 1022q-129 135 -314 135h-149v-332h151v-227h-151v-371h149q185 0 314 135q127 136 127 330t-127 330z" />
<glyph unicode="&#xd1;" horiz-adv-x="1263" d="M913 537v847h258v-1384h-225l-555 850v-850h-258v1384h225zM920 1530q-64 -55 -158 -55q-60 0 -119 26q-64 25 -82 25q-46 0 -61 -51h-234q13 97 77 151.5t159 54.5q58 0 119 -24q61 -27 81 -27q47 0 62 51h233q-15 -101 -77 -151z" />
<glyph unicode="&#xd2;" horiz-adv-x="1562" d="M1501 690q0 -294 -211 -502t-508 -208q-299 0 -510 208t-211 502q0 295 211 506q212 209 510 209q296 0 508 -209q211 -211 211 -506zM1106 1036q-132 144 -324 144q-191 0 -323 -144q-133 -145 -133 -346q0 -197 133 -342q131 -143 323 -143q193 0 324 143 q133 145 133 342q0 201 -133 346zM995 1475l-452 118l43 162l452 -119z" />
<glyph unicode="&#xd3;" horiz-adv-x="1562" d="M1290 188q-211 -208 -508 -208q-299 0 -510 208t-211 502q0 295 211 506q212 209 510 209q296 0 508 -209q211 -211 211 -506q0 -294 -211 -502zM1239 690q0 201 -133 346q-132 144 -324 144q-191 0 -323 -144q-133 -145 -133 -346q0 -197 133 -342q131 -143 323 -143 q193 0 324 143q133 145 133 342zM522 1636l453 119l43 -162l-453 -118z" />
<glyph unicode="&#xd4;" horiz-adv-x="1562" d="M1290 188q-211 -208 -508 -208q-299 0 -510 208t-211 502q0 295 211 506q212 209 510 209q296 0 508 -209q211 -211 211 -506q0 -294 -211 -502zM1239 690q0 201 -133 346q-132 144 -324 144q-191 0 -323 -144q-133 -145 -133 -346q0 -197 133 -342q131 -143 323 -143 q193 0 324 143q133 145 133 342zM1069 1606l-84 -131l-203 131l-204 -131l-84 131l288 168z" />
<glyph unicode="&#xd5;" horiz-adv-x="1562" d="M1290 1196q211 -211 211 -506q0 -294 -211 -502t-508 -208q-299 0 -510 208t-211 502q0 295 211 506q212 209 510 209q296 0 508 -209zM1106 348q133 145 133 342q0 201 -133 346q-132 144 -324 144q-191 0 -323 -144q-133 -145 -133 -346q0 -197 133 -342 q131 -143 323 -143q193 0 324 143zM793 1501q-64 25 -82 25q-47 0 -62 -51h-233q13 97 76.5 151.5t158.5 54.5q57 0 119 -24q61 -27 82 -27q46 0 61 51h234q-13 -97 -77 -151.5t-159 -54.5q-59 0 -118 26z" />
<glyph unicode="&#xd6;" horiz-adv-x="1562" d="M1501 690q0 -294 -211 -502t-508 -208q-299 0 -510 208t-211 502q0 295 211 506q212 209 510 209q296 0 508 -209q211 -211 211 -506zM1106 348q133 145 133 342q0 201 -133 346q-132 144 -324 144q-191 0 -323 -144q-133 -145 -133 -346q0 -197 133 -342 q131 -143 323 -143q193 0 324 143zM530 1661q25 23 59.5 27.5t64.5 -6.5t51.5 -37.5t21.5 -61.5q0 -43 -35 -75.5t-82 -32.5q-44 0 -79 32.5t-35 75.5q0 44 34 78zM829 1583q0 44 34 76.5t81 32.5t82 -32.5t35 -76.5q0 -43 -35 -75.5t-82 -32.5q-45 0 -80 33t-35 75z" />
<glyph unicode="&#xd7;" horiz-adv-x="1085" d="M545 283l-240 -240l-168 168l240 240l-238 237l168 166l238 -238l237 238l166 -166l-237 -237l237 -240l-164 -168z" />
<glyph unicode="&#xd8;" horiz-adv-x="1746" d="M1262 1290l88 94h336l-244 -260q149 -195 149 -434q0 -294 -211 -502t-508 -208q-222 0 -389 112l-86 -92h-336l240 258q-149 192 -149 432q0 297 210 504q212 209 510 209q213 0 390 -113zM477 446l619 666q-104 64 -224 64q-190 0 -323 -142q-133 -145 -133 -344 q0 -134 61 -244zM1327 690q0 134 -61 244l-619 -664q103 -63 225 -63q193 0 324 143q131 140 131 340z" />
<glyph unicode="&#xd9;" horiz-adv-x="1308" d="M1022 127q-150 -147 -367 -147q-216 0 -366 147q-154 145 -154 371v886h264v-882q0 -129 76 -211t180 -82q103 0 183 86q77 83 77 213v876h259v-882q0 -226 -152 -375zM416 1593l43 162l452 -119l-43 -161z" />
<glyph unicode="&#xda;" horiz-adv-x="1308" d="M1022 127q-150 -147 -367 -147q-216 0 -366 147q-154 145 -154 371v886h264v-882q0 -129 76 -211t180 -82q103 0 183 86q77 83 77 213v876h259v-882q0 -226 -152 -375zM395 1636l453 119l43 -162l-453 -118z" />
<glyph unicode="&#xdb;" horiz-adv-x="1308" d="M915 1384h259v-882q0 -226 -152 -375q-150 -147 -367 -147q-216 0 -366 147q-154 145 -154 371v886h264v-882q0 -129 76 -211t180 -82q103 0 183 86q77 83 77 213v876zM455 1475l-84 131l288 168l287 -168l-84 -131l-203 131z" />
<glyph unicode="&#xdc;" horiz-adv-x="1308" d="M915 508v876h259v-882q0 -226 -152 -375q-150 -147 -367 -147q-216 0 -366 147q-154 145 -154 371v886h264v-882q0 -129 76 -211t180 -82q103 0 183 86q77 83 77 213zM905 1663q35 -35 35 -78t-35 -75.5t-82 -32.5q-44 0 -79 32.5t-35 75.5q0 46 35 77t78.5 30.5 t82.5 -29.5zM375 1585q0 44 33.5 76.5t80.5 32.5t82 -32.5t35 -76.5q0 -43 -35 -75.5t-82 -32.5q-44 0 -79 32.5t-35 75.5z" />
<glyph unicode="&#xdd;" d="M455 0v385q-292 325 -424 999h264q108 -535 289 -780q182 244 290 780h265q-138 -685 -426 -999v-385h-258zM778 1755l43 -162l-452 -118l-43 161z" />
<glyph unicode="&#xde;" horiz-adv-x="1173" d="M952 367q-151 -142 -360 -142h-201v-225h-258v1384h258v-192h201q212 0 362 -141q148 -142 148 -342q0 -201 -150 -342zM391 965v-510h201q105 0 178 73q74 74 74 181q0 105 -74 182q-74 74 -178 74h-201z" />
<glyph unicode="&#xdf;" horiz-adv-x="1028" d="M592 1077q0 48 -30.5 79.5t-80.5 31.5q-100 0 -100 -115v-1073h-254v721h-117v223h117v123q0 155 90 246.5t254 91.5q166 0 267.5 -87.5t101.5 -223.5q0 -142 -103 -228q230 -131 230 -397q3 -208 -146 -348q-148 -139 -387 -139v217q134 0 207.5 70t73.5 194 q0 121 -69 189.5t-212 68.5v223q75 0 116.5 38t41.5 95z" />
<glyph unicode="&#xe0;" d="M801 897v47h256v-944h-256v49q-92 -69 -236 -69q-224 0 -362 141q-142 142 -142 350q0 205 148 350q147 144 356 144q141 0 236 -68zM807 471q0 121 -68.5 197.5t-173.5 76.5t-175.5 -77t-70.5 -197q0 -117 72 -195q71 -77 174 -77q105 0 174 75q68 77 68 197zM842 1288 l-43 -162l-453 119l43 162z" />
<glyph unicode="&#xe1;" d="M801 897v47h256v-944h-256v49q-92 -69 -236 -69q-224 0 -362 141q-142 142 -142 350q0 205 148 350q147 144 356 144q141 0 236 -68zM739 670q-69 75 -174 75t-174 -75q-72 -78 -72 -199q0 -117 72 -195q71 -77 174 -77q105 0 174 75q68 77 68 197q0 122 -68 199z M778 1407l43 -162l-452 -119l-43 162z" />
<glyph unicode="&#xe2;" d="M801 897v47h256v-944h-256v49q-92 -69 -236 -69q-224 0 -362 141q-142 142 -142 350q0 205 148 350q147 144 356 144q141 0 236 -68zM807 471q0 121 -68.5 197.5t-173.5 76.5t-175.5 -77t-70.5 -197q0 -117 72 -195q71 -77 174 -77q105 0 174 75q68 77 68 197zM850 1260 l-84 -132l-203 132l-205 -132l-84 132l289 167z" />
<glyph unicode="&#xe3;" d="M1057 0h-256v49q-92 -69 -236 -69q-224 0 -362 141q-142 142 -142 350q0 205 148 350q147 144 356 144q141 0 236 -68v47h256v-944zM739 670q-69 75 -174 75t-174 -75q-72 -78 -72 -199q0 -117 72 -195q71 -77 174 -77q105 0 174 75q68 77 68 197q0 122 -68 199z M713 1167q-57 0 -119 27q-64 25 -82 25q-46 0 -61 -52h-234q13 97 77 152t159 55q57 0 118 -24q62 -27 82 -27q47 0 62 51h233q-13 -97 -76.5 -152t-158.5 -55z" />
<glyph unicode="&#xe4;" d="M565 -20q-224 0 -362 141q-142 142 -142 350q0 205 148 350q147 144 356 144q141 0 236 -68v47h256v-944h-256v49q-92 -69 -236 -69zM807 471q0 121 -68.5 197.5t-173.5 76.5t-175.5 -77t-70.5 -197q0 -117 72 -195q71 -77 174 -77q105 0 174 75q68 77 68 197zM317 1354 q25 23 59.5 27.5t64.5 -6.5t51.5 -37.5t21.5 -61.5q0 -43 -35 -76t-82 -33q-44 0 -79 33t-35 76q0 44 34 78zM616 1276q0 44 34 76t81 32t82 -32t35 -76q0 -43 -35 -76t-82 -33q-44 0 -79.5 33t-35.5 76z" />
<glyph unicode="&#xe5;" d="M801 897v47h256v-944h-256v49q-92 -69 -236 -69q-224 0 -362 141q-142 142 -142 350q0 205 148 350q147 144 356 144q141 0 236 -68zM739 670q-69 75 -174 75t-174 -75q-72 -78 -72 -199q0 -117 72 -195q71 -77 174 -77q105 0 174 75q68 77 68 197q0 122 -68 199z M713 1382q60 -57 60 -135t-60 -135q-41 -46 -102.5 -54.5t-115 13t-90.5 70t-34 106.5q-3 58 34 106t90.5 69t115 12.5t102.5 -52.5zM631 1186q24 29 24 60.5t-25 57t-61 25.5t-61 -25.5t-24.5 -57.5t26.5 -60q25 -26 60 -26t61 26z" />
<glyph unicode="&#xe6;" horiz-adv-x="1830" d="M1516 346h-449q19 -54 92 -102q68 -45 133 -45q196 0 305 127l168 -144q-175 -202 -462 -202q-143 0 -256 73v-53h-246v55q-100 -75 -236 -75q-224 0 -362 141q-142 142 -142 350q0 205 148 350q147 144 356 144q129 0 236 -58v37h246v-51q119 72 256 72q198 0 335 -125 q138 -126 138 -275q0 -104 -69 -161.5t-191 -57.5zM391 276q71 -77 174 -77q105 0 174 75q68 77 68 197q0 122 -68 199q-69 75 -174 75t-174 -75q-72 -78 -72 -199q0 -117 72 -195zM1055 549h448q15 0 15 16q0 65 -64 123q-63 57 -162 57q-85 0 -149 -54t-88 -142z" />
<glyph unicode="&#xe7;" horiz-adv-x="1024" d="M745 -209q0 -92 -70 -159.5t-194 -73.5v196q66 6 66 60q0 67 -70 174q-176 27 -297 166q-119 134 -119 317q0 205 148 350q147 144 356 144q227 0 391 -179l-159 -159q-100 118 -232 118q-106 0 -176 -79q-72 -81 -72 -197q0 -115 72 -193q70 -79 176 -79q129 0 232 118 l178 -139q-158 -158 -316 -188q86 -106 86 -197z" />
<glyph unicode="&#xe8;" horiz-adv-x="1105" d="M815 352h-475q58 -153 274 -153q170 0 271 98l153 -141q-170 -176 -426 -176q-236 0 -393 145q-158 146 -158 354q0 199 148 344q145 142 356 142q201 0 338 -125t137 -285q0 -96 -56 -149.5t-169 -53.5zM811 1288l-43 -162l-453 119l43 162zM782 567q0 62 -63 119 q-65 59 -156 59q-86 0 -150 -55t-85 -141h440q14 0 14 18z" />
<glyph unicode="&#xe9;" horiz-adv-x="1105" d="M815 352h-475q58 -153 274 -153q170 0 271 98l153 -141q-170 -176 -426 -176q-236 0 -393 145q-158 146 -158 354q0 199 148 344q145 142 356 142q201 0 338 -125t137 -285q0 -96 -56 -149.5t-169 -53.5zM748 1407l43 -162l-453 -119l-43 162zM782 567q0 62 -63 119 q-65 59 -156 59q-86 0 -150 -55t-85 -141h440q14 0 14 18z" />
<glyph unicode="&#xea;" horiz-adv-x="1105" d="M1040 555q0 -96 -56 -149.5t-169 -53.5h-475q58 -153 274 -153q170 0 271 98l153 -141q-170 -176 -426 -176q-236 0 -393 145q-158 146 -158 354q0 199 148 344q145 142 356 142q201 0 338 -125t137 -285zM852 1260l-84 -132l-203 132l-205 -132l-84 132l289 167z M719 686q-65 59 -156 59q-86 0 -150 -55t-85 -141h440q14 0 14 18q0 62 -63 119z" />
<glyph unicode="&#xeb;" horiz-adv-x="1105" d="M612 -20q-236 0 -393 145q-158 146 -158 354q0 199 148 344q145 142 356 142q201 0 338 -125t137 -285q0 -96 -56 -149.5t-169 -53.5h-475q58 -153 274 -153q170 0 271 98l153 -141q-170 -176 -426 -176zM719 686q-65 59 -156 59q-86 0 -150 -55t-85 -141h440q14 0 14 18 q0 62 -63 119zM315 1354q25 23 59.5 27.5t64.5 -6.5t51.5 -37.5t21.5 -61.5q0 -43 -35 -76t-82 -33q-44 0 -79 33t-35 76q0 44 34 78zM614 1276q0 44 34 76t81 32t82 -32t35 -76q0 -43 -35 -76t-82 -33q-44 0 -79.5 33t-35.5 76z" />
<glyph unicode="&#xec;" horiz-adv-x="520" d="M133 0v944h256v-944h-256zM477 1126l-452 119l43 162l452 -119z" />
<glyph unicode="&#xed;" horiz-adv-x="520" d="M133 0v944h256v-944h-256zM47 1126l-43 162l453 119l43 -162z" />
<glyph unicode="&#xee;" horiz-adv-x="520" d="M389 944v-944h-256v944h256zM465 1128l-203 132l-205 -132l-84 132l289 167l287 -167z" />
<glyph unicode="&#xef;" horiz-adv-x="520" d="M133 0v944h256v-944h-256zM512 1354q35 -35 35 -78t-35 -76t-82 -33q-44 0 -79.5 33t-35.5 76q0 46 35 77t79 30.5t83 -29.5zM16 1354q25 23 59.5 27.5t64.5 -6.5t51.5 -37.5t21.5 -61.5q0 -43 -35 -76t-82 -33q-44 0 -79 33t-35 76q0 44 34 78z" />
<glyph unicode="&#xf0;" horiz-adv-x="1122" d="M694 1319l137 63l78 -163l-133 -64l234 -450q61 -119 61 -236q0 -202 -147 -346q-146 -143 -355 -143q-214 0 -360 143q-148 142 -148 346q0 215 154 354t379 142l-43 86l-123 -60l-80 164l119 55l-47 95l225 106zM739 668q-71 77 -174 77q-107 0 -177.5 -77.5 t-70.5 -198.5q0 -120 70.5 -196t177.5 -76q103 0 173.5 78.5t70.5 195.5q0 118 -70 197z" />
<glyph unicode="&#xf1;" horiz-adv-x="1157" d="M729 686q-62 59 -149 59t-149 -59t-62 -143v-543h-256v944h256v-47q86 68 211 68q192 0 329 -125q135 -126 135 -301v-539h-253v543q0 84 -62 143zM590 1194q-64 25 -82 25q-47 0 -62 -52h-233q13 97 77 152t159 55q57 0 118 -24q62 -27 82 -27q47 0 62 51h233 q-13 -97 -76.5 -152t-158.5 -55q-57 0 -119 27z" />
<glyph unicode="&#xf2;" horiz-adv-x="1130" d="M1071 471q0 -202 -147 -346q-148 -145 -359 -145q-208 0 -356 145t-148 346q0 203 148 348q149 146 356 146t359 -146q147 -144 147 -348zM737 668q-71 77 -174 77t-174 -77q-72 -78 -72 -197t72 -197q71 -77 174 -77t174 77q72 78 72 197t-72 197zM823 1288l-43 -162 l-452 119l43 162z" />
<glyph unicode="&#xf3;" horiz-adv-x="1130" d="M1071 471q0 -202 -147 -346q-148 -145 -359 -145q-208 0 -356 145t-148 346q0 203 148 348q149 146 356 146t359 -146q147 -144 147 -348zM809 471q0 118 -71 196t-175 78q-103 0 -174 -77q-72 -78 -72 -197t72 -197q71 -77 174 -77t174 77q72 78 72 197zM760 1407 l43 -162l-453 -119l-43 162z" />
<glyph unicode="&#xf4;" horiz-adv-x="1130" d="M1071 471q0 -202 -147 -346q-148 -145 -359 -145q-208 0 -356 145t-148 346q0 203 148 348q149 146 356 146t359 -146q147 -144 147 -348zM737 668q-71 77 -174 77t-174 -77q-72 -78 -72 -197t72 -197q71 -77 174 -77t174 77q72 78 72 197t-72 197zM852 1241l-84 -131 l-203 131l-205 -131l-84 131l289 168z" />
<glyph unicode="&#xf5;" horiz-adv-x="1130" d="M565 -20q-208 0 -356 145t-148 346q0 203 148 348q149 146 356 146t359 -146q147 -144 147 -348q0 -202 -147 -346q-148 -145 -359 -145zM737 274q72 78 72 197t-72 197q-71 77 -174 77q-104 0 -175 -78t-71 -196q0 -119 72 -197q71 -77 174 -77t174 77zM575 1194 q-64 25 -81 25q-47 0 -62 -52h-233q13 97 76.5 152t158.5 55q58 0 119 -24q61 -27 82 -27q46 0 61 51h234q-13 -97 -77 -152t-159 -55q-58 0 -119 27z" />
<glyph unicode="&#xf6;" horiz-adv-x="1130" d="M924 819q147 -144 147 -348q0 -202 -147 -346q-148 -145 -359 -145q-208 0 -356 145t-148 346q0 203 148 348q149 146 356 146t359 -146zM737 668q-71 77 -174 77t-174 -77q-72 -78 -72 -197t72 -197q71 -77 174 -77t174 77q72 78 72 197t-72 197zM647 1354 q25 23 59.5 27.5t64.5 -6.5t51.5 -37.5t21.5 -61.5q0 -43 -35 -76t-82 -33q-44 0 -79.5 33t-35.5 76t35 78zM279 1276q0 44 33.5 76t80.5 32t82 -32t35 -76q0 -43 -35 -76t-82 -33q-44 0 -79 33t-35 76z" />
<glyph unicode="&#xf7;" horiz-adv-x="1005" d="M965 561v-223h-924v223h924zM618 18q-48 -45 -116 -45q-66 0 -115 44.5t-49 107.5q0 61 49 106t115 45q67 0 115.5 -44.5t48.5 -106.5t-48 -107zM666 776q0 -62 -48.5 -106.5t-115.5 -44.5q-66 0 -115 45t-49 106t49 106.5t115 45.5q67 0 115.5 -45t48.5 -107z" />
<glyph unicode="&#xf8;" horiz-adv-x="1306" d="M891 905l37 39h319l-178 -194q90 -134 90 -279q0 -203 -147 -344q-146 -143 -357 -143q-127 0 -237 55l-35 -39h-322l179 193q-88 125 -88 278q0 202 147 346q144 144 356 144q130 0 236 -56zM901 471q0 41 -12 82l-307 -336q45 -10 73 -10q102 0 174 78t72 186zM420 391 l307 334q-35 12 -72 12q-102 0 -174 -78q-71 -77 -71 -188q0 -35 10 -80z" />
<glyph unicode="&#xf9;" horiz-adv-x="1155" d="M911 109q-132 -129 -333 -129q-205 0 -334 129q-131 128 -131 315v520h256v-518q0 -99 56.5 -164t152.5 -65q95 0 152.5 65t57.5 164v518h254v-520q0 -187 -131 -315zM340 1245l43 162l453 -119l-43 -162z" />
<glyph unicode="&#xfa;" horiz-adv-x="1155" d="M911 109q-132 -129 -333 -129q-205 0 -334 129q-131 128 -131 315v520h256v-518q0 -99 56.5 -164t152.5 -65q95 0 152.5 65t57.5 164v518h254v-520q0 -187 -131 -315zM362 1126l-43 162l453 119l43 -162z" />
<glyph unicode="&#xfb;" horiz-adv-x="1155" d="M788 944h254v-520q0 -187 -131 -315q-132 -129 -333 -129q-205 0 -334 129q-131 128 -131 315v520h256v-518q0 -99 56.5 -164t152.5 -65q95 0 152.5 65t57.5 164v518zM289 1260l289 167l286 -167l-84 -132l-202 132l-205 -132z" />
<glyph unicode="&#xfc;" horiz-adv-x="1155" d="M578 -20q-205 0 -334 129q-131 128 -131 315v520h256v-518q0 -99 56.5 -164t152.5 -65q95 0 152.5 65t57.5 164v518h254v-520q0 -187 -131 -315q-132 -129 -333 -129zM743 1167q-44 0 -79 33t-35 76q0 44 33.5 76t80.5 32t82 -32t35 -76q0 -43 -35 -76t-82 -33zM295 1276 q0 44 34 76t81 32t81.5 -32t34.5 -76q0 -43 -34.5 -76t-81.5 -33q-44 0 -79.5 33t-35.5 76z" />
<glyph unicode="&#xfd;" horiz-adv-x="1073" d="M307 211q-99 167 -170 346q-65 166 -117 387h259q95 -369 258 -645l92 168q99 183 168 477h256q-88 -381 -232 -635q-134 -239 -198 -401q-62 -157 -99 -348h-258q48 283 133 481q-23 51 -92 170zM774 1245l-452 -119l-43 162l452 119z" />
<glyph unicode="&#xfe;" horiz-adv-x="1177" d="M1118 473q0 -202 -147 -346q-146 -143 -357 -143q-147 0 -235 73v-499h-256v1826h256v-495q101 72 235 72q209 0 357 -142q147 -144 147 -346zM860 473q0 115 -70.5 189.5t-175.5 74.5t-172 -73t-67 -191t69 -190q67 -76 170 -76q105 0 175.5 75.5t70.5 190.5z" />
<glyph unicode="&#xff;" horiz-adv-x="1073" d="M537 299l92 168q99 183 168 477h256q-88 -381 -232 -635q-134 -239 -198 -401q-62 -157 -99 -348h-258q48 283 133 481q-23 51 -92 170q-99 167 -170 346q-65 166 -117 387h259q95 -369 258 -645zM782 1354q35 -35 35 -78t-35 -76t-82 -33q-44 0 -79 33t-35 76 q0 46 35 77t78.5 30.5t82.5 -29.5zM287 1354q25 23 59.5 27.5t64.5 -6.5t51 -37.5t21 -61.5q0 -43 -34.5 -76t-81.5 -33q-44 0 -79.5 33t-35.5 76t35 78z" />
<glyph unicode="&#x152;" horiz-adv-x="1636" d="M1098 854h352v-227h-352v-400h477v-227h-809q-292 0 -498 203q-207 204 -207 489q0 286 207 490q205 202 498 202h809v-227h-477v-303zM326 692q0 -195 129 -330q126 -135 311 -135h74v930h-74q-185 0 -311 -135q-129 -135 -129 -330z" />
<glyph unicode="&#x153;" horiz-adv-x="1847" d="M1530 346h-449q19 -53 93 -102q68 -45 133 -45q196 0 305 127l168 -144q-175 -202 -469 -202q-224 0 -373 165q-149 -165 -377 -165q-207 0 -352 145q-148 145 -148 346q0 203 148 348q146 146 352 146q225 0 375 -166q150 166 375 166q203 0 340 -125q139 -127 139 -275 q0 -104 -69 -161.5t-191 -57.5zM389 274q71 -77 174 -77t174 77q72 78 72 197t-72 197q-71 77 -174 77q-104 0 -175 -78t-71 -196q0 -119 72 -197zM1157 690q-68 -58 -88 -141h449q14 0 14 16q0 65 -64 123q-63 57 -161 57q-86 0 -150 -55z" />
<glyph unicode="&#x178;" d="M713 385v-385h-258v385q-292 325 -424 999h264q108 -535 289 -780q182 244 290 780h265q-138 -685 -426 -999zM338 1661q25 23 59.5 27.5t64.5 -6.5t51.5 -37.5t21.5 -61.5q0 -43 -35 -75.5t-82 -32.5q-45 0 -80 33t-35 75q0 43 35 78zM868 1583q0 -43 -34.5 -75.5 t-81.5 -32.5q-45 0 -80 33t-35 75q0 44 34 76.5t81 32.5t81.5 -32.5t34.5 -76.5z" />
<glyph unicode="&#x2c6;" horiz-adv-x="575" d="M289 1260l-205 -132l-84 132l289 167l286 -167l-83 -132z" />
<glyph unicode="&#x2dc;" horiz-adv-x="731" d="M354 1350q62 -27 82 -27q47 0 62 51h233q-13 -97 -76.5 -152t-158.5 -55q-58 0 -119 27q-64 25 -82 25q-47 0 -62 -52h-233q13 97 77 152t159 55q56 0 118 -24z" />
<glyph unicode="&#x2000;" horiz-adv-x="930" />
<glyph unicode="&#x2001;" horiz-adv-x="1860" />
<glyph unicode="&#x2002;" horiz-adv-x="930" />
<glyph unicode="&#x2003;" horiz-adv-x="1860" />
<glyph unicode="&#x2004;" horiz-adv-x="620" />
<glyph unicode="&#x2005;" horiz-adv-x="465" />
<glyph unicode="&#x2006;" horiz-adv-x="310" />
<glyph unicode="&#x2007;" horiz-adv-x="310" />
<glyph unicode="&#x2008;" horiz-adv-x="232" />
<glyph unicode="&#x2009;" horiz-adv-x="372" />
<glyph unicode="&#x200a;" horiz-adv-x="103" />
<glyph unicode="&#x2010;" horiz-adv-x="765" d="M102 684h564v-223h-564v223z" />
<glyph unicode="&#x2011;" horiz-adv-x="765" d="M102 684h564v-223h-564v223z" />
<glyph unicode="&#x2012;" horiz-adv-x="765" d="M102 684h564v-223h-564v223z" />
<glyph unicode="&#x2013;" horiz-adv-x="991" d="M0 733h993v-223h-993v223z" />
<glyph unicode="&#x2014;" horiz-adv-x="1581" d="M0 733h1583v-223h-1583v223z" />
<glyph unicode="&#x2018;" horiz-adv-x="479" d="M31 829q44 302 241 531l179 -100q-141 -235 -164 -472z" />
<glyph unicode="&#x2019;" horiz-adv-x="479" d="M195 1348l256 -41q-43 -298 -242 -531l-178 103l37 61q103 165 127 408z" />
<glyph unicode="&#x201a;" horiz-adv-x="479" d="M195 362l256 -40q-43 -298 -242 -531l-178 103l37 61q103 165 127 407z" />
<glyph unicode="&#x201c;" horiz-adv-x="829" d="M379 877q43 300 242 530l178 -100q-141 -236 -164 -471zM31 877q43 301 241 530l179 -100q-141 -236 -164 -471z" />
<glyph unicode="&#x201d;" horiz-adv-x="829" d="M195 1386l256 -40q-43 -301 -242 -531l-178 100q141 236 164 471zM557 815l-178 100q141 236 164 471l256 -40q-43 -301 -242 -531z" />
<glyph unicode="&#x201e;" horiz-adv-x="829" d="M195 199l256 -41q-43 -301 -242 -531l-178 101q141 236 164 471zM557 -373l-178 101q141 236 164 471l256 -41q-43 -301 -242 -531z" />
<glyph unicode="&#x2022;" horiz-adv-x="673" d="M72 707q0 95 78 167q76 70 186 70q112 0 188 -70q78 -72 78 -167q0 -98 -78 -170q-76 -70 -188 -70q-110 0 -186 70q-78 72 -78 170z" />
<glyph unicode="&#x2026;" horiz-adv-x="1245" d="M862 135q0 64 43.5 108t108.5 44q66 0 113 -45t47 -107q0 -63 -46.5 -107t-109.5 -44q-66 0 -111 44t-45 107zM514 242q45 45 113 45q63 0 107 -45t44 -107t-47 -106q-34 -35 -82 -42.5t-89 9t-69 54.5t-24 85q0 60 47 107zM72 135q0 62 46 107t109 45t109.5 -45.5 t46.5 -106.5q0 -63 -45 -107t-111 -44q-63 0 -109 44t-46 107z" />
<glyph unicode="&#x202f;" horiz-adv-x="372" />
<glyph unicode="&#x2039;" horiz-adv-x="739" d="M406 453l262 -265l-164 -168l-432 433l430 430l168 -168z" />
<glyph unicode="&#x203a;" horiz-adv-x="739" d="M72 188l264 265l-264 262l168 168l430 -430l-432 -433z" />
<glyph unicode="&#x205f;" horiz-adv-x="465" />
<glyph unicode="&#x20ac;" horiz-adv-x="1218" d="M1022 356l166 -155q-85 -102 -209 -161.5t-244 -59.5q-208 0 -368 139q-161 136 -220 358h-147v166h121q-2 20 -2 94h-119v166h147q60 226 220 361q160 139 368 139q121 0 238 -53.5t203 -153.5l-152 -149q-62 74 -123.5 101.5t-165.5 27.5q-102 0 -187 -74t-128 -199 h399v-166h-436v-94h436v-166h-399q43 -124 128 -197t187 -73q180 0 287 149z" />
<glyph unicode="&#x2122;" horiz-adv-x="1898" d="M1421 1346q26 32 41 41.5t43 9.5q43 0 86 -49q232 -283 256 -990h-190q-21 545 -148 787q-140 -235 -161 -488h-177q-44 287 -157 488q-129 -237 -150 -787h-190q24 706 254 990q25 31 40.5 40t45.5 9q31 0 46.5 -9.5t39.5 -41.5q95 -126 162 -289q60 164 159 289z M20 1384h730v-170h-269v-856h-190v856h-271v170z" />
<glyph unicode="&#x25fc;" horiz-adv-x="942" d="M0 942h942v-942h-942v942z" />
</font>
</defs>
</svg>
