<svg xmlns="http://www.w3.org/2000/svg" viewBox="0 0 219 219">
  <defs>
    <style>
      .cls-1{
      fill:#fff;
      stroke:#231f20;
      stroke-miterlimit:10;
      stroke-width:3px;
      }
    </style>
  </defs>
  <g id="Layer_2" data-name="Layer 2">
    <g id="background">
      <path class="cls-1" d="M163.93,1.5H55.07A53.58,53.58,0,0,0,1.5,55.07V163.93A53.58,53.58,0,0,0,55.07,217.5H163.93a53.58,53.58,0,0,0,53.57-53.57V55.07A53.58,53.58,0,0,0,163.93,1.5ZM109.5,170.72a61.22,61.22,0,1,1,61.22-61.22A61.22,61.22,0,0,1,109.5,170.72Zm72-119.22a15,15,0,1,1,15-15A15,15,0,0,1,181.5,51.5Z"/>
    </g>
  </g>
</svg>
